<svg xmlns="http://www.w3.org/2000/svg" xmlns:xlink="http://www.w3.org/1999/xlink" width="500" zoomAndPan="magnify" viewBox="0 0 375 374.999991" height="500" preserveAspectRatio="xMidYMid meet" version="1.2"><defs><clipPath id="8905b795b2"><path d="M 0 224 L 375 224 L 375 373.5 L 0 373.5 Z M 0 224 "/></clipPath><clipPath id="f99d80ab06"><path d="M 108.417969 69.59375 L 238.746094 69.59375 L 238.746094 143.558594 L 108.417969 143.558594 Z M 108.417969 69.59375 "/></clipPath><clipPath id="7d3a777a37"><path d="M 151.554688 56.285156 L 195.609375 56.285156 L 195.609375 130.25 L 151.554688 130.25 Z M 151.554688 56.285156 "/></clipPath></defs><g id="d79c37e327"><rect x="0" width="375" y="0" height="374.999991" style="fill:#ffffff;fill-opacity:1;stroke:none;"/><rect x="0" width="375" y="0" height="374.999991" style="fill:#ffffff;fill-opacity:1;stroke:none;"/><path style=" stroke:none;fill-rule:nonzero;fill:#000000;fill-opacity:1;" d="M 57.996094 106.589844 L 172.089844 21.097656 L 298.050781 111.0625 L 172.390625 193.675781 Z M 172.613281 5.011719 L 39.6875 105.902344 L 173.308594 209.558594 C 222.40625 177.265625 267.367188 144.042969 316.472656 111.753906 Z M 172.613281 5.011719 "/><path style=" stroke:none;fill-rule:nonzero;fill:#000000;fill-opacity:1;" d="M 305.75 112.949219 L 331.230469 234.527344 L 181.953125 324.402344 L 178.699219 203.285156 L 167.890625 202.65625 L 163.660156 332.453125 L 170.6875 344.007812 C 228.113281 309.4375 285.539062 274.871094 342.972656 240.300781 L 316.472656 111.757812 Z M 305.75 112.949219 "/><path style=" stroke:none;fill-rule:nonzero;fill:#000000;fill-opacity:1;" d="M 39.6875 105.917969 L 11.625 155.699219 L 0.0234375 224.238281 L 170.6875 344.023438 L 173.714844 327.808594 L 11.90625 219.316406 L 22 159.679688 L 49.140625 111.53125 Z M 39.6875 105.917969 "/><g style="fill:#fe9edd;fill-opacity:1;"><g transform="translate(168.406734, 152.438798)"><path style="stroke:none" d="M 34.9375 -21.921875 C 25.34375 -15.554688 15.117188 -11.835938 4.265625 -10.765625 C -6.585938 -9.703125 -16.828125 -11.289062 -26.453125 -15.53125 C -35.710938 -19.601562 -42.125 -24.351562 -45.6875 -29.78125 C -49.25 -35.207031 -49.703125 -40.914062 -47.046875 -46.90625 C -44.398438 -52.894531 -38.90625 -58.65625 -30.5625 -64.1875 C -22.957031 -69.238281 -14.015625 -74.085938 -3.734375 -78.734375 L 12.609375 -68.59375 L 8.375 -65.796875 L -2.578125 -70.609375 C -6.023438 -70.097656 -9.472656 -69.1875 -12.921875 -67.875 C -16.378906 -66.5625 -19.519531 -64.96875 -22.34375 -63.09375 C -27.894531 -59.414062 -31.148438 -55.347656 -32.109375 -50.890625 C -33.078125 -46.429688 -31.632812 -42 -27.78125 -37.59375 C -23.925781 -33.195312 -18.046875 -29.257812 -10.140625 -25.78125 C -2.347656 -22.363281 5.273438 -20.71875 12.734375 -20.84375 C 20.203125 -20.976562 26.742188 -22.90625 32.359375 -26.625 C 35.660156 -28.8125 38.441406 -31.242188 40.703125 -33.921875 C 42.960938 -36.609375 44.289062 -38.992188 44.6875 -41.078125 L 36.15625 -49.125 L 40.4375 -51.96875 L 56.296875 -41.328125 C 53.890625 -38.191406 50.820312 -34.898438 47.09375 -31.453125 C 43.363281 -28.003906 39.3125 -24.828125 34.9375 -21.921875 Z M 34.9375 -21.921875 "/></g></g><path style=" stroke:none;fill-rule:evenodd;fill:#e7e7e7;fill-opacity:1;" d="M 167.800781 205.273438 L 128.78125 175.027344 L 140.320312 209.542969 L 130.542969 284.4375 L 14.859375 221.246094 L 163.691406 321.046875 Z M 167.800781 205.273438 "/><g clip-rule="nonzero" clip-path="url(#8905b795b2)"><path style=" stroke:none;fill-rule:evenodd;fill:#e7e7e7;fill-opacity:1;" d="M 342.933594 240.289062 L 375.007812 263.882812 L 194.105469 373.511719 L 0 224.21875 L 170.636719 343.992188 Z M 342.933594 240.289062 "/></g><path style=" stroke:none;fill-rule:evenodd;fill:#e7e7e7;fill-opacity:1;" d="M 331.199219 234.515625 L 306.851562 118.121094 L 178.753906 205.933594 L 181.980469 324.371094 Z M 331.199219 234.515625 "/><g clip-rule="nonzero" clip-path="url(#f99d80ab06)"><path style=" stroke:none;fill-rule:nonzero;fill:#ffffff;fill-opacity:1;" d="M 108.417969 69.59375 L 238.722656 69.59375 L 238.722656 143.558594 L 108.417969 143.558594 Z M 108.417969 69.59375 "/></g><g clip-rule="nonzero" clip-path="url(#7d3a777a37)"><path style=" stroke:none;fill-rule:nonzero;fill:#ffffff;fill-opacity:1;" d="M 151.554688 56.285156 L 195.609375 56.285156 L 195.609375 130.289062 L 151.554688 130.289062 Z M 151.554688 56.285156 "/></g></g></svg>